<svg width="44" height="32" viewBox="0 0 44 32" fill="none" xmlns="http://www.w3.org/2000/svg">
<rect width="40" height="23" rx="2" fill="#031128"/>
<path d="M25.9676 10.2829C26.7009 10.6485 26.7111 11.6906 25.9852 12.0661L17.8131 16.2927C17.1512 16.635 16.3589 16.157 16.3516 15.4109L16.2695 7.06927C16.2622 6.32319 17.045 5.83453 17.7135 6.16784L25.9676 10.2829Z" fill="#D61313"/>
<path d="M1.70455 31V25.1818H2.40909V28.0682H2.47727L5.09091 25.1818H6.01136L3.56818 27.8068L6.01136 31H5.15909L3.13636 28.2955L2.40909 29.1136V31H1.70455ZM7.62784 25.1818V31H6.9233V25.1818H7.62784ZM13.6541 25.1818V31H12.9723L9.80185 26.4318H9.74503V31H9.04048V25.1818H9.7223L12.9041 29.7614H12.9609V25.1818H13.6541ZM19.973 28.0909C19.973 28.7045 19.8622 29.2348 19.6406 29.6818C19.419 30.1288 19.1151 30.4735 18.7287 30.7159C18.3423 30.9583 17.901 31.0795 17.4048 31.0795C16.9086 31.0795 16.4673 30.9583 16.081 30.7159C15.6946 30.4735 15.3906 30.1288 15.169 29.6818C14.9474 29.2348 14.8366 28.7045 14.8366 28.0909C14.8366 27.4773 14.9474 26.947 15.169 26.5C15.3906 26.053 15.6946 25.7083 16.081 25.4659C16.4673 25.2235 16.9086 25.1023 17.4048 25.1023C17.901 25.1023 18.3423 25.2235 18.7287 25.4659C19.1151 25.7083 19.419 26.053 19.6406 26.5C19.8622 26.947 19.973 27.4773 19.973 28.0909ZM19.2912 28.0909C19.2912 27.5871 19.2069 27.1619 19.0384 26.8153C18.8717 26.4688 18.6454 26.2064 18.3594 26.0284C18.0753 25.8504 17.7571 25.7614 17.4048 25.7614C17.0526 25.7614 16.7334 25.8504 16.4474 26.0284C16.1634 26.2064 15.937 26.4688 15.7685 26.8153C15.6018 27.1619 15.5185 27.5871 15.5185 28.0909C15.5185 28.5947 15.6018 29.0199 15.7685 29.3665C15.937 29.7131 16.1634 29.9754 16.4474 30.1534C16.7334 30.3314 17.0526 30.4205 17.4048 30.4205C17.7571 30.4205 18.0753 30.3314 18.3594 30.1534C18.6454 29.9754 18.8717 29.7131 19.0384 29.3665C19.2069 29.0199 19.2912 28.5947 19.2912 28.0909ZM21.1577 25.1818H21.9986L23.9759 30.0114H24.044L26.0213 25.1818H26.8622V31H26.2031V26.5795H26.1463L24.3281 31H23.6918L21.8736 26.5795H21.8168V31H21.1577V25.1818ZM33.1839 28.0909C33.1839 28.7045 33.0732 29.2348 32.8516 29.6818C32.63 30.1288 32.326 30.4735 31.9396 30.7159C31.5533 30.9583 31.112 31.0795 30.6158 31.0795C30.1196 31.0795 29.6783 30.9583 29.2919 30.7159C28.9055 30.4735 28.6016 30.1288 28.38 29.6818C28.1584 29.2348 28.0476 28.7045 28.0476 28.0909C28.0476 27.4773 28.1584 26.947 28.38 26.5C28.6016 26.053 28.9055 25.7083 29.2919 25.4659C29.6783 25.2235 30.1196 25.1023 30.6158 25.1023C31.112 25.1023 31.5533 25.2235 31.9396 25.4659C32.326 25.7083 32.63 26.053 32.8516 26.5C33.0732 26.947 33.1839 27.4773 33.1839 28.0909ZM32.5021 28.0909C32.5021 27.5871 32.4179 27.1619 32.2493 26.8153C32.0826 26.4688 31.8563 26.2064 31.5703 26.0284C31.2862 25.8504 30.968 25.7614 30.6158 25.7614C30.2635 25.7614 29.9444 25.8504 29.6584 26.0284C29.3743 26.2064 29.148 26.4688 28.9794 26.8153C28.8127 27.1619 28.7294 27.5871 28.7294 28.0909C28.7294 28.5947 28.8127 29.0199 28.9794 29.3665C29.148 29.7131 29.3743 29.9754 29.6584 30.1534C29.9444 30.3314 30.2635 30.4205 30.6158 30.4205C30.968 30.4205 31.2862 30.3314 31.5703 30.1534C31.8563 29.9754 32.0826 29.7131 32.2493 29.3665C32.4179 29.0199 32.5021 28.5947 32.5021 28.0909ZM34.3338 25.1818L36.0611 30.0795H36.1293L37.8565 25.1818H38.5952L36.4588 31H35.7315L33.5952 25.1818H34.3338Z" fill="black"/>
</svg>
